<?xml version="1.0" standalone="no"?>
<!DOCTYPE svg PUBLIC "-//W3C//DTD SVG 20010904//EN"
 "http://www.w3.org/TR/2001/REC-SVG-20010904/DTD/svg10.dtd">
<svg version="1.0" xmlns="http://www.w3.org/2000/svg"
 width="180.000000pt" height="180.000000pt" viewBox="0 0 180.000000 180.000000"
 preserveAspectRatio="xMidYMid meet">

<g transform="translate(0.000000,180.000000) scale(0.100000,-0.100000)"
fill="#000000" stroke="none">
<path d="M805 1704 c-65 -10 -183 -44 -239 -69 -170 -75 -329 -236 -405 -409
-110 -252 -80 -566 75 -783 161 -225 393 -347 664 -347 123 0 200 15 313 61
180 73 347 237 426 417 89 204 88 452 -4 660 -75 170 -236 329 -409 405 -113
49 -317 81 -421 65z m294 -211 c16 -32 36 -75 44 -95 l15 -37 -61 -29 c-86
-41 -155 -72 -161 -72 -6 0 -86 169 -86 182 0 8 193 105 212 107 4 1 21 -25
37 -56z m-439 -144 c51 -12 121 -60 157 -105 75 -96 88 -170 51 -282 -14 -40
-22 -74 -19 -76 3 -2 46 -12 95 -22 l89 -17 24 29 c12 16 23 36 23 45 0 9 -21
61 -46 115 -25 55 -52 114 -59 132 l-14 33 52 23 c29 13 78 35 109 50 31 14
59 26 62 26 6 0 46 -83 136 -280 26 -58 71 -154 100 -215 29 -60 61 -129 71
-153 l19 -43 -53 -23 c-28 -13 -76 -35 -106 -50 -30 -14 -58 -26 -63 -26 -4 0
-23 34 -43 77 -19 42 -37 74 -39 72 -2 -2 -31 -38 -64 -80 -61 -78 -219 -239
-260 -266 -21 -14 -29 -13 -115 22 -50 21 -98 43 -105 50 -9 8 4 24 59 70 64
53 236 251 226 261 -2 2 -46 13 -98 23 l-94 20 -35 -42 c-38 -47 -109 -116
-156 -153 l-32 -24 -106 42 -107 43 43 35 c24 19 72 63 107 98 l65 65 -62 27
c-85 39 -147 103 -168 176 -28 99 -4 193 68 260 79 75 167 94 288 63z"/>
<path d="M600 1190 c-30 -30 -60 -96 -60 -132 0 -63 67 -134 91 -97 23 36 49
125 49 168 0 71 -39 102 -80 61z"/>
</g>
</svg>
